<svg xmlns="http://www.w3.org/2000/svg" xmlns:xlink="http://www.w3.org/1999/xlink" version="1.1" id="Layer_1" x="0px" y="0px" width="75px" height="68.81625px" viewBox="0.252 3.9 100 91.755" enable-background="new 0.252 3.9 100 91.755" xml:space="preserve">
<path d="M100.252,47.517c0,1.995-1.596,3.591-3.591,3.591h-0.665L81.768,93.262c-0.532,1.462-1.861,2.394-3.324,2.394H22.725  c-1.463,0-2.792-0.932-3.325-2.394L4.64,51.108H3.842c-1.995,0-3.59-1.596-3.59-3.591s1.596-3.59,3.59-3.59h28.989l6.516-17.686  c-1.063-1.33-1.462-3.059-0.931-4.654l5.319-14.495C44.4,5.097,46.262,3.9,48.257,3.9h3.989c1.995,0,3.856,1.197,4.521,3.191  l5.319,14.495c0.532,1.596,0.133,3.324-0.931,4.654l6.516,17.686h28.989C98.656,43.927,100.252,45.522,100.252,47.517z   M12.353,51.108l3.192,9.175h13.563l-1.596-9.175H12.353z M20.464,74.378h11.037l-1.596-9.308H17.14L20.464,74.378z M25.385,88.474  h8.644l-1.596-9.308H22.06L25.385,88.474z M32.299,51.108l1.596,9.175h13.963v-9.175H32.299z M36.422,74.378h11.436v-9.308H34.826  L36.422,74.378z M37.22,79.166l1.729,9.308h8.91v-9.308H37.22z M37.885,43.927h24.734l-5.852-16.09  c-1.729-0.266-3.059-1.33-3.724-3.059l-2.792-7.713l-2.792,7.713c-0.665,1.729-1.995,2.792-3.723,3.059L37.885,43.927z   M66.608,60.282l1.596-9.175H52.646v9.175H66.608z M65.678,65.071H52.646v9.308h11.437L65.678,65.071z M52.646,88.474h8.909  l1.729-9.308H52.646V88.474z M78.976,79.166H68.071l-1.596,9.308h9.308L78.976,79.166z M83.63,65.071H70.598l-1.729,9.308h11.702  L83.63,65.071z M88.417,51.108H72.991l-1.596,9.175h13.963L88.417,51.108z"/>
</svg>